<?xml version="1.0" encoding="utf-8"?>
<!-- Generator: Adobe Illustrator 27.0.0, SVG Export Plug-In . SVG Version: 6.00 Build 0)  -->
<svg version="1.1" id="Layer_1" xmlns="http://www.w3.org/2000/svg" xmlns:xlink="http://www.w3.org/1999/xlink" x="0px" y="0px"
	 width="350px" height="81px" viewBox="0 0 350 81" style="enable-background:new 0 0 350 81;" xml:space="preserve">
<style type="text/css">
	.st0{fill:#968150;}
	.st1{fill:#54565A;}
	.st2{fill:#54565A;stroke:#54565A;stroke-width:0.25;stroke-miterlimit:10;}
</style>
<path id="icon" class="st0" d="M57.6,76.3c-0.1-0.1-0.2-0.2-0.3-0.3c-0.2-0.4-0.3-0.8-0.3-1.2c0-0.5,0.1-1.2,0.4-1.4
	c0.5-0.3,1.2-0.3,1.7,0c0.8,0.5,1.6,1,2.3,1.5l0.6-0.4l0.6-0.5c0.4-0.3,0.9-0.6,1.3-0.9c-0.5-0.3-1-0.6-1.6-0.6
	c-0.4-0.1-0.9-0.2-1.3-0.4c-0.8-0.2-1.7-0.5-2.5-0.7c-1.1-0.2-2.4-1-3.5-1.1c-1.6-0.2-0.5,0.3-1.4,1.2c-0.3,0.2-0.7,0.3-1,0.4
	c-0.2,0-0.3,0.1-0.3,0.3c-0.1,0.1,0,0.3,0.1,0.4c0.3,0.4,0.6,0.8,0.8,1.2c0.1,0.4,0.2,1.6-0.2,1.9s-0.9-0.5-1.2-0.7
	c-1.4-0.8-3-1.4-4.6-1.8c-0.5-0.1-1,0.1-1.5,0c-0.8-0.3-1.7-0.7-2.4-1.2c-0.4-0.2-0.8-0.3-1.3-0.3c-0.3,0-1,0.2-0.9,0.7
	c0.2,0.5,0.5,0.8,1,1.1l1.6,0.8c1.1,0.6,2.2,1.1,3.4,1.4l0.3,0.1c0.8,0.1,1.5,0.3,2.3,0.5c1.1,0.4,1.7,1.4,2.8,1.7l1.8,0.6
	c1.4-0.5,2.8-1.1,4.1-1.8c-0.2-0.2-0.4-0.2-0.6-0.2C57.7,76.4,57.7,76.4,57.6,76.3 M25.5,2.9c0,0.5,0.2,1,0.5,1.5
	c0.6,0.6,1.7-0.1,2.3-0.3c1-0.3,1.9-0.6,2.9-0.8c0.9-0.2,1.7,0.3,2.6,0.2c0.8-0.3,1.5-0.7,2.1-1.4c0.5-0.6,0.9-1.2,1.4-1.9
	C38.1,0,39,0,39.9,0c-0.3,0.3-0.5,0.6-0.7,0.9c-0.6,0.9-0.5,2-1.1,2.9c-1,1.6-2.8,1.6-4.4,1.9C31.3,6.1,29,7,26.6,7.5
	c-0.4,0.1-0.8,0.2-1.2,0.4c-0.5,0.2-0.9,0.5-1.2,1c-0.1,0.3-0.2,0.6-0.3,1c-0.4,2.3,2.1-0.1,2.3,0.4c0.1,0.3,0.1,0.7,0,1
	c-0.1,0.4-0.5,0.7-0.7,1c-0.2,0.4-0.8,1.2-0.7,1.8c0.1,1.7,0.4,3.3,0.9,4.9c1,3.5,0,6.8-0.9,10c-0.8,2-0.3,4.3,1.1,5.8
	c0.4,0.4,0.6,1,0.6,1.6c0,0.6,0.2,1.2,0.5,1.6c0.4,0.4,0.9,0.7,1.5,0.6c0.4,0.1,0.8,0.2,1.1,0.4c1.1,0.8,2.2,1.6,3.2,2.5
	c0.5,0.5,0.9,1,1.3,1.5l0.6,0.8c0.2,0.3,0.4,0.8,0.8,0.5c0.3-0.2,0.5-0.5,0.6-0.9c0.3-0.8,0.3-1.8-0.1-2.6c-0.3-0.6-0.8-1.2-0.9-1.9
	c0-0.6,0.5-1,0.5-1.6c0-0.4-0.3-0.7-0.6-0.8c-0.3-0.2-0.6-0.4-1-0.5c-0.9-0.4-1.7-0.9-2.6-1.3c-1-0.5-2-1.2-2.9-1.8
	c-0.5-0.4-1.3-1-1.3-1.8c0-1.3,1-0.3,1.8-0.5c1.3-0.4,1.4-1.7,2-2.9c1.4-2.4,2.6-5,3.6-7.6c0.3-0.7,0.4-1.5,0.3-2.3
	c-0.4-1.5-1.2-2.8-1.7-4.3c-0.1-0.4-0.2-0.8-0.3-1.2c-0.2-0.8-0.3-1.6-0.5-2.3c-0.1-0.4-0.2-0.8-0.3-1.1c-0.1-0.4,0.1-0.7,0.5-0.5
	c0.3,0.2,0.5,0.5,0.5,0.9c0.4,1.5,0.8,3,1.3,4.4c0.3,0.7,0.8,1.7,1.3,1.8s1.3-0.6,1.6-1.6c0.3-1.7,0.8-3.4,1.4-5.1
	c0.2-0.4,0.6-0.6,1.1-0.6c0.3,0,0.9,0.5,0.9,0.8c0,1.4-0.6,3.4-0.2,4.8c0.3,0.9,1.2,1.3,1.6,2.2c0.4,0.8,0.3,1.8,0.6,2.7
	c0.2,0.3,0.5,0.5,0.8,0.6c0.2,0,0.6-0.5,0.6-0.8c0.4-2.4,1.7-6.4,0.9-8.8c-0.6-1.8-2.9-2.1-3.8-3.7c-1.4-2.7,2.3-1,3.3-1.1
	c1.8-0.2,1.9-2.4,2.3-4.2c0.8,0.1,1.6,0.3,2.3,0.5c-0.1,1.4-0.2,2.7-0.3,4.1c0,0.5-0.8,0.9-0.9,1.5c-0.4,2.1-0.6,4.2-0.9,6.3
	c-0.1,1.2-0.2,2.4-0.3,3.6c-0.1,1.9-0.2,3.7-0.1,5.6c0,0.4,0.7,0.9,1.1,1.1c0.5,0.1,0.8-0.6,1-1c0.5-1.1,0.7-2.3,1.2-3.3
	c0.7-1.6,1.1-3.3,1.2-5.1c0-0.7,0.2-1.5,0.4-2.2c0.3-0.8,1-1.2,0.9-2.1c-0.1-0.5-0.8-0.9-0.8-1.4c-0.3-1.9,1.2-3.8,1.8-5.7l2,0.9
	c0,0.1-0.1,0.3-0.1,0.4c-0.4,1.8-0.7,3.6-0.7,5.5c0.1,2.8,0.3,5.5-1.6,8c-0.4,0.6-0.6,1.3-0.6,2c-0.2,1,0.6,1.3,1.2,0.5
	c0.7-1.1,1.4-2.3,2-3.4c0.3-1,0.6-1.9,0.9-2.9c0.3-0.6,0.8-1,1.1-1.6c0.4-1.3,0.6-2.7,0.3-4c-0.1-1.6-0.1-2.3,0.5-3
	c0.8,0.4,1.7,0.9,2.5,1.4c-0.1,1,0,1.9,0.2,2.8c0.2,0.5,0.5,0.9,0.9,1.2c1.2,0.5,2.3,1.2,3.4,2c0.8,0.8,4.4,6.6,5.7,3.2v-0.1
	c2.1,2.7,3.9,5.6,5.3,8.7c0-0.2-0.6-0.4-0.8-0.5c-0.2-0.1-0.6-0.3-0.8-0.5c-0.4-0.3-0.8-0.5-1.2-0.7c-1-0.3-2-0.5-3.1-0.7l-4.4-1
	c-0.4,0-0.9-0.3-1.2-0.1c-0.6,0.2-1,0.6-1.3,1.1c-0.6,1.9-1,3.9-1.6,5.8c-0.4,1,0,2.2,1,2.7c0.9,0.7,0.9,2.3,2,2.6
	c0.6,0.1,1.1,0.3,1.6,0.7c0.3,0.5,0.6,1.1,0.8,1.7c0.6,1,1.5,2.6,2.8,1.9c1.9-0.9,0-3,0.1-4.2c0.1-0.8,1.2-1.1,2.1-0.7
	c0.8,0.4,0.8,1.2,1,2.2c0.4,1.7,0.8,3.4,0.9,5.2c0,0.9,0.3,1.8,0.8,2.6c0.4,0.3,0.9,0.5,1.4,0.5c0.6,0,1,0,1.4-0.5s1-1,0.9-1.4
	c-0.2-1.5-0.6-3-1.3-4.4c-0.5-0.7-0.9-1.4-1.3-2.2c-0.2-0.6-0.2-1.2-0.4-1.8c-0.8-1.4-2.1-2.4-3.6-3c-1.3-0.6-2.7-1-4.1-1.6
	c-0.4-0.2-0.9-0.3-0.9-0.7c0-0.2,0-0.5,0.2-0.6s0.4-0.3,0.6-0.2c0.9,0.1,1.9,0.2,2.8,0.4c1.1,0.2,2.2,0.7,3.3,0.8
	c1.9,0.3,3.5,1.6,4.3,3.4c0.2,0.7,0.5,1.5,0.8,2.2c0.2,0.8,0.4,1.6,0.4,2.5c0.2,1.8,0.3,3.6,0.3,5.3c0,3.7-0.6,7.4-1.6,11
	c-1.2-1-2.6-1.6-4.2-1.6c-1.3,0.1-2.5,0.1-3.8,0c-2.7-0.4-5.4-0.9-8.1-1.4c-0.3-0.1-0.7-0.1-1,0.1c-0.3,0.2-0.5,0.5-0.6,0.8
	c-0.8,1.2-1.4,2.6-1.8,4c-0.2,1.6,1.6,3.1,2.5,4.2c0.7,0.9,1.6,1.6,2.6,2c1.6,0.3,2-2.9,2.7-3.8c0.6-0.6,1.4-0.9,2.2-1.2
	c1.7-0.4,3.5-0.5,5.2-0.3c0.7,0,1.6,0.4,1.7,1.4s-1.3,0.9-2.2,1.1c-1.6,0.3-5.2,0.2-5.6,1.6c-0.4,1.3-0.5,2.6-0.3,3.9
	c0.1,0.9,0.8,2.7-0.7,2.7c-1,0-2.3-1.5-3.2-2c-1.2-0.6-2.4-1.3-3.4-2.1c-1.2-1.1-1.7-1.6-3.3-0.6c-1.1,0.7-5.8,3.7-5.4,5.3
	c0.4,1.6,7.7,1.6,9.1,1.6c1.8,0,3.5,0.1,5.3,0.3c1.4,0,2.7,0.3,4,0.8c3.7,3.5,0.1,4-3.2,2.1c-2.7-0.6-5.3-1-8-1.5
	c-1-0.1-1.9-0.6-2.9-0.8C55,68.4,54,68.2,53,68.2c-2.2,0-1.2,3.1-3.6,2.8c-1.2-0.1-2-1.6-3-2.2c-1.7-0.9-3.7-0.3-5.4-1
	c-0.9-0.4-1.9-2.3-3.1-1.3c-0.7,0.6-0.4,1.8-0.4,2.7c-0.1,0.8-1,2.3,0.1,3.2c0.6,0.4,1.4,0.3,2.1,0.6c1,0.5,1.7,2,2.3,3
	c0.4,0.6,0.2,1,0.4,1.6c0.3,1,1.1,1.2,2,1.6c1.1,0.5,2.2,1,3.2,1.6c-0.9,0.2-1.8,0.3-2.7,0.4c-0.1-0.1-0.2-0.3-0.4-0.4
	c-0.5-0.6-1.2-1-2-1.2c-0.2-0.6-0.6-0.6-1-0.6c-0.2,0-0.5,0-0.7,0c-0.5,0.2,0.2,0.9,0.4,1.1s0.4,0.3,0.5,0.6c0,0,0.2,0.4,0.3,0.4
	c-0.7,0-1.5,0-2.2,0h-0.5c-0.4-0.4-0.8-0.7-1.3-0.9c-0.4-0.1-0.8-0.2-1.2-0.3c-0.2-0.1-0.4-0.1-0.7,0c-0.5,0.2-1,0.3-1.6,0.3
	c-0.3,0.1-0.6,0.2-0.8,0.5L33,80.4c-1.7-0.3-3.4-0.7-5.1-1.2c-0.8-0.3-1.6-0.5-2.4-0.9h-0.4c-0.1,0-0.4-0.1-0.2-0.3
	c0.2-0.2,1.6-0.5,1.9-0.7s-0.3-0.6-0.5-0.8l-1-0.9c-0.6-0.5-1.3-1-2-1.4s-1.6-0.5-2.4-0.4c-0.4,0-1,0.5-1,0.8s0.4,0.9,0.8,1.1
	c0.8,0.5,2.1,0.5,2.6,1.2c0.3,0.4,0.2,0.5-0.1,0.4c-3-1.4-5.8-3.2-8.4-5.4c0.4,0.1,0.8,0.2,1.2,0.3c0.7,0.1,1.4,0.1,2.1,0
	c0.6-0.2,1.1-0.4,1.6-0.8c0.1,0,0-0.7-0.1-0.8c-0.7-0.6-1.6-1.2-2.3-1.7c-1.6-1.2-3.3-2.4-4.9-3.6c-0.3-0.3-0.6-0.7-0.7-1.2
	c-0.2-1.3-0.6-2.6-1.1-3.9C9.8,59.1,8,59.1,7,58.6c-1.4-0.6-2.3-1.9-2.3-3.5c0-1,0.1-0.9,0.9-0.4s1,0.9,1.6,1.4c2,1.4,5,1.8,5.7,4.3
	c0.2,0.8,0.3,2.2,1.6,1.9s0.9-2.5,0.5-3.4c-0.5-1.3-2-1.6-2.5-2.7C12,55.1,13,54,12.3,52.8c-0.6-0.8-1.4-1.5-2.3-2
	c-2.2-1.4-4.8-2-7.4-1.8c-0.7,0-1,0.3-1.2,0.7c-1.9-8.3-1.2-17.1,2.1-25c0.2,1.1,0.5,2.1,0.7,3.2c0,0.8-0.2,1.6-0.5,2.4
	c-0.2,1.1-0.3,2.2-0.5,3.4c-0.1,0.6-0.3,1.2-0.4,1.9c-0.1,0.6,0.3,1.4,0.9,0.8C4,36.1,4,34.8,4.3,34.7c0.4-0.1,0.7-0.4,0.9-0.8
	s0.2-0.8,0-1.2c-0.5-1.6,0.2-3.2,0.3-4.8C5.6,26,6,24.2,6.2,22.4c0.1-0.4,0.1-0.9,0.1-1.3c0-0.5,0-1-0.1-1.5
	c1.1-1.8,2.3-3.5,3.6-5.1c0.5,0.4,1.1,0.4,1.6,0c0.6-0.5,0.3-1.5,0.3-2.2c0-0.2,0.7-0.7,0.8-0.8l0.9-0.9C14,10,14.6,9.5,15.3,9
	c0.6-0.5,1.3-1,2-1.5c0.5-0.4,1-0.6,1.6-0.8c0.3,0,0.5-0.1,0.8-0.1c0.8-0.1,1.5-0.3,2.2-0.6c0.6-0.4,1-1.1,1.1-1.9
	c1-0.5,1.9-0.9,2.9-1.3 M75.7,47c0,0.6,1.2,0,1.6-0.1c0.6-0.3,1.2-0.7,1.6-1.2c0.3-0.5,0.4-1,0.4-1.6c-0.1-0.6-0.6-0.5-1.1-0.5
	c-1,0-0.9,0.9-0.9,1.6c0,0.2-0.1,0.4-0.2,0.5c-0.3,0.3-1.2,0.7-1.2,1.2 M13.7,13c0,0.2,0.7,0.6,1.1,0.6c1.2,0.2,2.4,0,3.5-0.5
	c0.5-0.3,1-0.6,1.3-1.1c0.3-0.4,0.6-0.9,0.8-1.4c0-0.1,0.3-0.5,0.1-0.7c-0.2-0.1-0.8,0.1-1,0.2c-0.7,0.2-1.5,0.3-2.2,0.4
	c-1.1,0.3-2,0.8-3.2,1.1C14,11.8,13.7,12.6,13.7,13 M17,16.1c0-0.5-0.6-0.2-0.9-0.2c-0.6,0.1-1.2-0.3-1.9,0
	c-0.3,0.1-0.6,0.3-0.8,0.5s-0.7,1-0.2,1.1c0.2,0,0.5-0.1,0.7-0.2c0.2,0,0.6,0,0.9,0c0.4,0,0.8-0.1,1.1-0.3c0.3-0.2,0.9-0.5,1.1-0.8
	C17,16.2,17,16.1,17,16.1 M9.5,33.7c-0.5,0.7-1,1.5-1.4,2.3c-0.2,0.5-0.1,1.6,0.1,1.6c1,0.3,2,0.6,3,0.7c0.3,0,0.6-0.2,0.7-0.5
	c0.3-1.7,0.6-3.5,0.9-5.2c0.2-0.7,0.4-2.7,1.3-2.7c0.3,1.2,0.5,2.3,0.6,3.5c0,1.1,0,2.1,0,3.2c0.1,0.5,0.5,0.8,0.9,0.9
	c2.5,0.3,3.2-2.2,4-3.7c1.7-2.9-1.7-4.4-3.9-5.7c-1.9-1-2.9-0.5-4,1.4C11.1,30.9,10.3,32.3,9.5,33.7 M8.3,21.1
	c-0.1,0.5,0.1,1.1,0.5,1.5c0.4,0.3,1,0.5,1.5,0.5c0.7,0,0.5-0.8,0.5-1.3c0-0.7-0.1-1.5-0.1-2.2c0-0.6,0-1.1-0.1-1.7
	c0-0.3-0.2-0.6-0.5-0.7c-0.5-0.2-0.7,0-1.1,0.3c-0.4,0.3-0.6,0.7-0.8,1.1C8,19.4,8.4,20.2,8.3,21.1 M6.9,30.8c0,0.5-0.2,2,0.8,1.9
	c0.4,0,0.6-0.5,0.7-0.8c0.1-0.2,0.1-0.4,0.1-0.6c0.1-0.4,0.3-0.8,0.5-1.1c0.5-0.6,0.9-1.4,1.1-2.1c0.2-0.9,0.1-1.9-0.3-2.7
	c-0.2-0.4-1.1-0.7-1.6-0.8c-0.5-0.1-0.4-0.1-0.6,0.1C7.5,25,7.4,25.5,7.3,26C7.2,26.9,7,27.8,7,28.8c0,0.7,0,1.4,0,2.1 M47.3,62.9
	c-0.2-0.8-0.6-1-1.4-1.3c-1.1-0.5-2.8-1.6-2.9-3c0-0.8,0.2-0.8,0.9-0.6c0.4,0.1,0.7,0.3,1,0.5c0.2,0.2,0.5,0.5,0.8,0.5
	c0.6,0,0-1.4,0-1.6c-0.1-0.7-0.5-1.2-1.1-1.6c-0.7-0.4-1.9-0.5-1.7-1.6c0.2-1.6,2.1-0.5,3.2-0.6c0.6,0,0.2-3.9,0-4.2
	c-0.2-0.4-0.7-0.5-1.2-0.6c-1.1-0.2-4.5-1.9-5.4-0.7c-0.4,1.8,0.4,3.1,0.7,4.8c0.2,1.7,0.3,3.4,0.2,5.2c-0.2,1.6,0.6,3.1,1.9,3.9
	c1.1,1,2.5,1.8,3.9,2.3C47,64.4,47.5,63.9,47.3,62.9 M58,47.5c-0.4-0.3-0.8-0.6-1.2-1c-1-1.1-2-3-3.6-3.2c-1.5-0.2-2.3,1.1-3.2,2.1
	c-0.8,1-2.8,2.3-2.8,4c0.2,1.6,0.6,3.1,1.1,4.6c0.5,2.3,0.7,4.6,0.6,7c0,1.2-0.8,3.2,1.1,3c1.5-0.3,2.6-1.5,2.8-3.1
	c0.1-1.4,0.4-2.8,2-3.3c1-0.3,2.8,0.1,3-1.3c0.3-1.4-1.1-1.8-2.3-1.8c-0.7,0-3.7,0.4-3-1.1c0.5-0.8,1.2-1.3,2.1-1.7
	C57.1,51,61.5,50.2,58,47.5 M67.3,43.5c-1.4-0.5-2.7-1.1-4-1.8c-0.9-0.4-1.4-0.3-1.6,0.7c-0.1,0.6-0.2,1.3-0.3,1.9s-0.4,1.5,0.1,1.8
	c0.4,0.1,0.8,0.2,1.2,0.2l1.2,0.2c2.4,0.4,4.9,0.7,7.3,1.1c1.5,0.2,2.2-0.6,1.9-1.9c-0.6-1.2-1.8-2-3.2-2
	C69.1,43.8,68.2,43.7,67.3,43.5 M62.2,32.6c-0.2-0.2-0.4-0.2-0.7-0.1S61.1,32.8,61,33c0,0.2,0.2,0.5,0.3,0.7c0.3,1,0.5,2,0.6,3.1
	c0.1,0.7,0.4,1.4,0.9,2c0.7,0.8,2,1.2,2.9,1.6c0.6,0.4,2.1,1.5,2.9,1.3c1.2-0.4,0.6-1.9-0.2-2.6c-0.5-0.4-1.3-0.5-1.8-0.9
	c-0.4-0.4-0.7-0.9-0.9-1.3l-0.2-0.2c-0.9-0.9-2-1.3-2.6-2.4C62.6,33.7,62.5,33,62.2,32.6 M59.9,16.3c2,0.3,4,0.7,6.3,1.1
	C66,17,66,16.7,65.8,16.5c-1.3-1-2.5-2-3.9-2.8c-2.2-1.4-2.3-1.3-2.9,1.2C58.8,15.8,59,16.2,59.9,16.3 M53.2,31.5
	c-0.8,1.8-1.4,3.6-1.7,5.5c-0.1,1.7-0.4,2.9,1,4.2c0.9,0.8,2.1,0.9,3,1.6c0.7,0.5,1,1.4,1.6,1.8c2.3,1.4,2.4-2.4,2.9-3.8
	c0.3-0.8,0.2-1.3-0.7-1.7c-0.9-0.6-1.8-1.2-2.7-1.9c-0.6-0.4-1.2-0.8-0.6-1.6s2.3,0.4,2.5-1.3c0.1-0.9,0.1-1.7,0-2.6
	c0.1-0.8-0.1-1.7-0.5-2.4c-0.5-0.5-1.1-0.8-1.7-1.1c-0.6-0.4-1.4-0.8-0.8-1.7s1.3-1.3,2.3-0.6c0.5,0.3,1.4,0.8,1.6,0.6
	c0.5-0.6,0.9-1.3,1.1-2c0.3-1,0.2-2.1,0.5-3.2s0.1-1.7-1.2-1.8c-0.4,0-0.8,0-1.2-0.1c-1.7-0.3-2.2,0-2.8,1.6
	c-0.3,0.9-0.9,1.8-1.2,2.7c-0.4,1.2-1.1,2.6-0.7,3.6c0.7,1.8-0.2,3-0.7,4.4 M47.4,27.9c-0.4,0.1-0.8,0.3-1.2,0.6
	c-0.4,0.3-0.8,0.7-1.1,1.2c-0.9,1.4-1.4,3.1-1.5,4.8c0,1.9,0.6,3.5,0.5,5.4c0,0.7-0.4,6.9,0,7c1.4,0.3,1.7,0.3,2.2-1.1
	c0.5-2,0.6-4.1,0.4-6.2c0-0.4,0-0.7,0.1-1.1c0.1-0.2,0.3-0.3,0.5-0.3c0.1,0,0.3,0,0.4,0c0.1,0.1,0.1,0.3,0.2,0.4c0,0.3,0,0.5,0,0.8
	c-0.1,0.7-0.1,1.3-0.1,2c-0.1,0.5,0.1,0.9,0.4,1.3c0.4,0.2,0.8,0.3,1.2,0.2c0.6,0,0.7-1.2,0.7-1.7s0-1.4,0-2
	c0.2-1.4,0.4-2.8,0.7-4.3c0.4-1.4,0.6-2.8,0.8-4.2c0-1.6,0.8-3.2,0.9-4.8c0.2-0.8,0.3-1.7,0.3-2.5c-0.2-0.5-0.6-0.9-1-1
	c-0.5-0.2-1-0.1-1.4,0.2C50,23,50.1,23.5,50,24c-0.3,1.7-0.5,3.4-0.6,5.1c0,0.4,0,0.9,0,1.3c0.1,1.4,0,2.7-0.3,4.1
	c-0.1,0.5-0.3,1-0.7,1.3C48.2,35.9,48,36,47.8,36c-0.1,0-0.3,0-0.4,0c-0.2-0.2,0-0.6,0-0.8c0.2-1.6,0-3.1,0.1-4.6
	c0.1-0.8,0.2-1.6,0.1-2.4C47.6,28,47.4,27.9,47.4,27.9 M34.3,30.6c0.7-0.6,1.4-1.4,1.9-2.2c0.7-1.3,1.3-2.7,1.9-4.1
	c0.9-1.6,1.8-3.3,2.5-5.1c0.2-0.6,0-1.9-0.6-2.2s-1.2,0.2-1.6,0.6c-0.7,1.1-1.2,2.3-1.6,3.5c-0.4,1.5-1.1,2.9-2.1,4.1
	c-1.4,1.2-1.9,3.1-1.3,4.8C33.5,30.4,34.3,30.8,34.3,30.6 M37.3,36.1c1.3,1,1.1,2.5,1.3,4c0.2,1.6,0.6,3.2,1.2,4.8
	c0.2,0.4,0.5,0.8,0.9,1c0.3,0.3,0.8,0.7,1.3,0.6c0.5-0.1,0.6-0.6,0.6-1c0-1-0.2-2-0.2-3.1c0-1.8,0.1-3.7,0-5.5
	c-0.3-1.4-0.6-2.8-0.7-4.2c0.1-1.6,2-3.4,3-4.6c1.2-1.4,2-3.1,0.6-4.8c-0.9-1.1-1.7-2.3-2.7-1c-1.1,1.7-2.3,3.3-3.7,4.8
	c-1.1,1.3-2.1,2.6-3,4c-0.5,0.6-1.6,0.9-1.8,1.8C33.5,34.9,36.3,35.3,37.3,36.1 M30.1,43.1c0.1,0.5,0.2,1.1,0.2,1.6
	c0,1.9,0,4,0.1,5.9c0.2,1.4,0.6,2.8,1.1,4.1c0.3,1.6,0.3,3.1,0.8,4.6c0.1,0.6,0.4,1.1,0.8,1.6c1.1,1.3,2.9,0.7,4.2,1.8
	c0.9,0.8,1.8,1.5,2.7,2.1c0.3,0.2,2.9,1.5,3.2,0.7c0.2-1.2-1.6-1.8-2.2-2.4c-0.6-0.6-1.5-1.9-2.3-2.7c-0.7-0.5-1.5-0.9-2.3-1.2
	c-0.5-0.2-0.9-0.6-1.1-1.1c0-0.3,0-0.5,0-0.8s-0.1-0.4,0.2-0.4s0.5,0.1,0.8,0.3c0.4,0.2,0.8,0.4,1.2,0.5s0.4-0.2,0.5-0.6
	c0.2-0.8,0.2-1.7,0-2.5c-0.3-0.8-0.7-1.5-1.3-2c-0.2-0.2-0.4-0.4-0.6-0.5c-0.8-0.3-1.5-0.9-2-1.6c-0.1-0.2-0.3-2,0-2
	c1,0.1,3.2,2.8,3.2,0.2c0-1.4-1.8-2.4-2.7-3.2s-2-2.2-3.2-3.2c-0.2-0.2-0.6-0.6-0.9-0.5s-0.3,1-0.2,1.3 M33.1,72.2
	c1.2,0.7,1.6-1.3,1.5-2.1c-0.1-2-0.1-4-0.3-5.9c0-0.8-0.7-1.1-1.4-0.7c-1.7,1.4-2.3,3.8-1.6,5.9C31.8,70.2,32.1,71.6,33.1,72.2
	 M28.7,71.2c-0.2-0.2-0.4-0.4-0.5-0.6c-0.9-1.3-1.8-2.7-2.6-4.2c-0.6-1-1-2.1-1.2-3.2c0-0.5,0.4-0.8,0.2-1.4c-0.3-1-1.5-0.9-2.2-1.2
	c-1.6-0.9-0.9-2.7-2-4s-3-2.3-3.9-3.9c-1.1-1.6-1.9-3.4-2.6-5.2c-0.4-1.2-0.7-2.5-0.8-3.8c-0.1-1.1-0.7-2.1-1.7-2.7
	c-2.1-1.3-4.4-2-6.8-2.3c-1.2-0.2-2.1,0.6-2.9,1.6c-1.2,1.5-0.9,3.1-0.7,4.8c0.1,0.9,0.4,1.5,1.4,1.5c0.9,0,1.7,0.2,2.5,0.4
	c2.2,0.8,4.3,1.9,6.2,3.2c0.8,0.5,1.6,1,2.4,1.6c1.2,1.1,0.4,1.9,0.6,3.2c0.3,1.2,1.6,2.3,2.2,3.6c0.8,1.8,0.4,3.9,1,5.7
	c0.6,1.6,1.6,2.9,2.9,3.9c1.1,0.9,2.2,1.9,3.3,2.9c0.7,0.7,1.2,1.8,2,2.3c0.5,0.4,1.2,0.1,1.7,0.4s0.9,1.1,1.3,1.6
	c1.1,1.3,2.5,2.3,4,2.9c0.8,0.2,1.7,0,2.4-0.4c0.3-0.2,0.7-0.4,1-0.5c0.3-0.2,0.8-0.5,1.2-0.3c0.4,0.3,0.8,0.5,1.3,0.6
	c0.2,0.1,0.4,0.1,0.6,0c0.2,0,0.4-0.2,0.6-0.1s0.5,0.6,0.8,0.2s0-0.7,0-0.9c-0.1-0.4-0.4-0.8-0.7-1.2c-0.5-0.7-1.3-1-2-0.9
	c-1.1,0.2-1.1,1.3-1.8,2c-0.8,0.6-2.5-0.2-3.2-0.9c-1.3-1.6-2.1-3.5-4-4.5 M22.5,34.7c-1.7,2.1-4.3,2.9-6.6,4.1
	c-1.6,0.8-2,1.4-1.7,3.2c0.2,1.1,0.4,2.1,0.7,3.1c0.4,0.9,0.8,1.7,1.3,2.5c0.7,1.3,1.6,2.4,2.6,3.5c0.7,0.7,1.3,1.4,1.9,2.2
	c0.7,1.2,2.2,2.2,2.5,3.5c0.1,0.5,0,2.3,1,2.1c0.7,0,0.7-1.4,0.7-1.9c-0.1-0.9,0-1.8,0-2.6c-0.1-1.2-1.2-1.9-1.7-2.9
	c-0.5-1.3-0.7-2.7-0.7-4.1c-0.2-1.6-0.5-3.2-1.1-4.6c-0.3-0.7-0.4-1,0.2-1.4c0.3-0.4,0.8-0.5,1.3-0.4s0.8,0.5,0.9,1
	c0.7,2,1.1,4.1,1.1,6.3c-0.1,1.5-1,2.6,0.7,3.5c1,0.5,1.2,0.5,1.4,1.6c0.4,2.6-0.6,4.9-0.3,7.4c0.1,1.3,0.5,2.5,1,3.6
	c0.4,0.8,0.5,0.8,1,0c0.7-1.2,1.1-2.6,1.1-3.9c0-0.5,0-1,0-1.6c0.1-1.7,0-3.5-0.4-5.1c-0.2-0.8-0.5-1.6-1-2.2
	c-0.6-0.9-1.3-1.6-1-2.8c0.4-1.5,0.7-3.1,0.9-4.6c0-0.3,0.1-0.5,0.2-0.8c0.3-1.1-0.3-1.5-1.1-2c-1.2-0.6-1.2-1.1-1.6-2.4
	C25.5,37.5,23.8,33,22.5,34.7 M23.2,19.8c-0.2-1.4-0.5-2.7-0.8-4c-0.2-0.8-0.8-1.4-1.7-0.5c-0.6,0.6-1.3,1.2-2,1.7
	c-0.9,0.6-1.7,1.2-2.6,1.7c-0.5,0.3-1,0.5-1.5,0.9c-0.5,0.3-0.7,0.8-0.7,1.3c0.1,0.9,0.1,1.8,0.1,2.7c-0.2,1.6,0,1.8,1.5,2.3
	c1.3,0.4,2.6,1,3.8,1.7c0.6,0.5,1.1,1.1,1.4,1.9c0.3,0.7,0.8,1,1.4,0.6c0.9-0.4,1.2-1.5,0.9-2.4c-0.1-0.3-0.1-0.6,0-0.9
	c0.4-1.1,0.7-2.2,0.9-3.3C23.7,22.2,23.5,21,23.2,19.8"/>
<g>
	<g>
		<path class="st1" d="M104.8,43.8c0.1-1.8,0.2-6.6,0.2-14.2c0-4.1-0.1-6.9-0.2-8.4c-4.7,0.2-7.4,0.3-8,0.3c-0.6,0-1-0.1-1.2-0.3
			c-0.2-0.2-0.3-0.5-0.3-1.1c0-0.7,0.2-1.6,0.6-2.4c2.3,0.6,5.5,0.9,9.8,0.9h12.5c0.6,0,1,0.1,1.2,0.3c0.2,0.2,0.4,0.5,0.4,1
			c0,0.9-0.3,1.8-0.8,2.6c-2.2-0.9-5.1-1.4-8.6-1.4h-0.7c-0.1,1.5-0.2,4.4-0.2,8.6c0,7.5,0.1,12.1,0.2,14h2.9
			c0.2,0.4,0.2,0.8,0.2,1.2c0,0.3-0.1,0.6-0.2,0.7c-0.1,0.1-0.4,0.2-0.7,0.2H102c-0.2-0.5-0.3-0.9-0.3-1.3c0-0.3,0.1-0.5,0.2-0.6
			c0.1-0.1,0.4-0.2,0.7-0.2H104.8z"/>
		<path class="st1" d="M123.8,18.7h8.4c0.2,0.4,0.2,0.8,0.2,1.2c0,0.3-0.1,0.6-0.2,0.7c-0.1,0.1-0.4,0.2-0.7,0.2h-1.4
			c-0.1,1.8-0.1,5-0.1,9.5h11.8c0-4.5-0.1-7.6-0.2-9.5h-2.1c-0.2-0.5-0.3-0.9-0.3-1.3c0-0.3,0.1-0.5,0.2-0.6
			c0.1-0.1,0.4-0.2,0.7-0.2h8.4c0.2,0.4,0.2,0.8,0.2,1.2c0,0.3-0.1,0.6-0.2,0.7c-0.1,0.1-0.4,0.2-0.7,0.2h-1.6
			c-0.1,1.8-0.1,4.9-0.1,9.1c0,7.5,0.1,12.1,0.2,14h2.3c0.2,0.4,0.2,0.8,0.2,1.2c0,0.3-0.1,0.6-0.2,0.7c-0.1,0.1-0.4,0.2-0.7,0.2
			h-8.4c-0.2-0.5-0.3-0.9-0.3-1.3c0-0.3,0.1-0.5,0.2-0.6c0.1-0.1,0.4-0.2,0.7-0.2h1.4c0.1-1.6,0.1-5.3,0.2-11.1H130
			c0,5.8,0.1,9.5,0.2,11.1h2.1c0.2,0.4,0.2,0.8,0.2,1.2c0,0.3-0.1,0.6-0.2,0.7c-0.1,0.1-0.4,0.2-0.7,0.2h-8.4
			c-0.2-0.5-0.3-0.9-0.3-1.3c0-0.3,0.1-0.5,0.2-0.6c0.1-0.1,0.4-0.2,0.7-0.2h1.6c0.1-1.8,0.2-6.6,0.2-14.2c0-4.1-0.1-7-0.2-8.9h-2.2
			c-0.2-0.5-0.3-0.9-0.3-1.3c0-0.3,0.1-0.5,0.2-0.6C123.2,18.7,123.5,18.7,123.8,18.7"/>
		<path class="st1" d="M154.7,18.7h17.1c0.8,0,1.3,0.1,1.6,0.3c0.3,0.2,0.4,0.6,0.4,1.3c0,0.8-0.3,1.6-0.8,2.5
			c-2.5-1-6-1.5-10.4-1.5h-1.7c-0.1,1.5-0.1,4.5-0.1,8.9h10.4c0.2,0.5,0.3,1.1,0.3,1.6c0,0.4-0.1,0.6-0.2,0.7
			c-0.1,0.1-0.4,0.2-0.8,0.2h-9.7c0,5.7,0.1,9.3,0.1,10.5h2.8c4.2,0,7.6-0.5,10-1.4c0.4,0.7,0.6,1.5,0.6,2.3c0,0.6-0.2,1-0.6,1.3
			c-0.4,0.3-1.2,0.4-2.4,0.4l-17.3,0c-0.2-0.5-0.3-0.9-0.3-1.3c0-0.3,0.1-0.5,0.2-0.6c0.1-0.1,0.4-0.2,0.7-0.2h1.5
			c0.1-1.9,0.1-6.6,0.1-14.2c0-4.1,0-7-0.1-8.9h-2.1c-0.2-0.5-0.3-0.9-0.3-1.3c0-0.3,0.1-0.5,0.2-0.6
			C154.2,18.7,154.4,18.7,154.7,18.7"/>
		<path class="st1" d="M197.5,31.9h1.7c2.3,0,4.1-0.4,5.3-1.2c1.2-0.8,1.8-2,1.8-3.6c0-1.9-0.5-3.3-1.6-4.2
			c-1.1-0.9-2.6-1.3-4.6-1.3c-0.9,0-1.7,0.1-2.3,0.2c-0.1,1.1-0.2,3.8-0.2,8.1V31.9z M197.6,43.8h2.8c0.2,0.4,0.2,0.8,0.2,1.2
			c0,0.3-0.1,0.6-0.2,0.7c-0.1,0.1-0.4,0.2-0.7,0.2h-9.4c-0.2-0.5-0.3-0.9-0.3-1.3c0-0.3,0.1-0.5,0.2-0.6c0.1-0.1,0.4-0.2,0.7-0.2
			h1.8c0.1-1.8,0.2-6.6,0.2-14.2c0-4.1-0.1-7-0.2-8.9h-2.3c-0.2-0.5-0.2-0.9-0.2-1.3c0-0.3,0.1-0.5,0.2-0.6c0.1-0.1,0.4-0.2,0.7-0.2
			h8.6c4,0,6.9,0.6,8.6,1.7c1.7,1.1,2.6,2.9,2.6,5.3c0,3.7-2.2,6.2-6.6,7.5c1.3,0.4,2.3,1.1,3.1,2.1c0.8,1,1.6,2.5,2.5,4.4
			c0.9,1.9,1.6,3.1,2.1,3.5c0.5,0.4,1.2,0.6,2.1,0.6c0.3,1,0.2,1.6-0.1,1.9c-0.3,0.3-1.2,0.5-2.6,0.5c-1.6,0-2.7-0.2-3.4-0.6
			c-0.7-0.4-1.4-1.9-2.2-4.4c-0.7-2.5-1.5-4.3-2.4-5.3c-0.8-1-2-1.5-3.6-1.5c-0.8,0-1.6,0.1-2.5,0.2
			C197.5,39.2,197.5,42.3,197.6,43.8"/>
		<path class="st1" d="M218.8,18.7h17.1c0.8,0,1.3,0.1,1.6,0.3c0.3,0.2,0.4,0.6,0.4,1.3c0,0.8-0.3,1.6-0.8,2.5
			c-2.5-1-6-1.5-10.4-1.5H225c-0.1,1.5-0.1,4.5-0.1,8.9h10.4c0.2,0.5,0.3,1.1,0.3,1.6c0,0.4-0.1,0.6-0.2,0.7
			c-0.1,0.1-0.4,0.2-0.8,0.2h-9.7c0,5.7,0.1,9.3,0.1,10.5h2.8c4.2,0,7.6-0.5,10-1.4c0.4,0.7,0.6,1.5,0.6,2.3c0,0.6-0.2,1-0.6,1.3
			c-0.4,0.3-1.2,0.4-2.4,0.4l-17.3,0c-0.2-0.5-0.3-0.9-0.3-1.3c0-0.3,0.1-0.5,0.2-0.6c0.1-0.1,0.4-0.2,0.7-0.2h1.5
			c0.1-1.9,0.1-6.6,0.1-14.2c0-4.1,0-7-0.1-8.9h-2.1c-0.2-0.5-0.3-0.9-0.3-1.3c0-0.3,0.1-0.5,0.2-0.6
			C218.2,18.7,218.5,18.7,218.8,18.7"/>
		<path class="st1" d="M243.7,18.7h17.1c0.8,0,1.3,0.1,1.6,0.3c0.3,0.2,0.4,0.6,0.4,1.3c0,0.8-0.3,1.6-0.8,2.5
			c-2.5-1-6-1.5-10.4-1.5h-1.7c-0.1,1.5-0.1,4.5-0.1,8.9h10.4c0.2,0.5,0.3,1.1,0.3,1.6c0,0.4-0.1,0.6-0.2,0.7
			c-0.1,0.1-0.4,0.2-0.8,0.2h-9.7c0,5.7,0.1,9.3,0.1,10.5h2.8c4.2,0,7.6-0.5,10-1.4c0.4,0.7,0.6,1.5,0.6,2.3c0,0.6-0.2,1-0.6,1.3
			c-0.4,0.3-1.2,0.4-2.4,0.4l-17.3,0c-0.2-0.5-0.3-0.9-0.3-1.3c0-0.3,0.1-0.5,0.2-0.6c0.1-0.1,0.4-0.2,0.7-0.2h1.5
			c0.1-1.9,0.1-6.6,0.1-14.2c0-4.1,0-7-0.1-8.9H243c-0.2-0.5-0.3-0.9-0.3-1.3c0-0.3,0.1-0.5,0.2-0.6
			C243.1,18.7,243.4,18.7,243.7,18.7"/>
		<path class="st1" d="M268.6,18.7h17.1c0.8,0,1.3,0.1,1.6,0.3c0.3,0.2,0.4,0.6,0.4,1.3c0,0.8-0.3,1.6-0.8,2.5
			c-2.5-1-6-1.5-10.4-1.5h-1.7c-0.1,1.5-0.1,4.7-0.1,9.5h9.8c0.2,0.5,0.3,1.1,0.3,1.6c0,0.4-0.1,0.6-0.2,0.7
			c-0.1,0.1-0.4,0.2-0.8,0.2h-9.1c0,5.4,0.1,8.9,0.1,10.5h3.2c0.2,0.4,0.2,0.8,0.2,1.2c0,0.3-0.1,0.6-0.2,0.7
			c-0.1,0.1-0.4,0.2-0.7,0.2h-9.4c-0.2-0.5-0.3-0.9-0.3-1.3c0-0.3,0.1-0.5,0.2-0.6c0.1-0.1,0.4-0.2,0.7-0.2h1.5
			c0.1-1.8,0.1-6.6,0.1-14.2c0-4.1,0-7-0.1-8.9h-2.1c-0.2-0.5-0.3-0.9-0.3-1.3c0-0.3,0.1-0.5,0.2-0.6
			C268,18.7,268.2,18.7,268.6,18.7"/>
		<path class="st1" d="M318.2,45.9h-14.7c-0.3-0.7-0.4-1.5-0.4-2.4c0-2.3,0.7-4.3,2.1-5.8c1.4-1.6,3.6-3.5,6.6-5.7
			c3-2.2,4.6-4.3,4.6-6.3c0-1.6-0.5-2.8-1.5-3.5c-1-0.7-2.3-1.1-3.9-1.1c-1.2,0-2.2,0.1-3.1,0.2c-0.4,0.8-0.6,1.2-0.7,1.2
			c-0.1,0.1-0.4,0.2-1.1,0.3c-0.7,0.2-1.1,0.1-1.4-0.1c-0.3-0.2-0.6-0.7-0.9-1.4c-0.3-0.7-0.4-1.2-0.4-1.6c0-0.3,0.1-0.4,0.3-0.5
			c0.2-0.1,1.1-0.3,2.7-0.5c1.6-0.3,3.5-0.4,5.8-0.4c2.8,0,5.1,0.5,6.7,1.4c1.7,0.9,2.5,2.7,2.5,5.4c0,1.6-0.4,3.1-1.3,4.5
			c-0.8,1.4-3,3.3-6.6,5.7c-3.5,2.4-5.2,5.1-5,8h1.6c4.3,0,7.8-0.6,10.4-1.8c0.5,0.9,0.8,1.7,0.8,2.5c0,0.7-0.2,1.2-0.6,1.4
			C320.2,45.7,319.4,45.9,318.2,45.9"/>
		<path class="st1" d="M342.6,25c0-1.2-0.4-2.1-1.2-2.8c-0.8-0.7-1.9-1-3.4-1c-1.4,0-2.5,0.3-3.2,1c-0.7,0.7-1.1,1.5-1.1,2.6
			c0,2.3,1.7,4.2,5.2,5.5C341.4,28.8,342.6,27.1,342.6,25 M336.6,33.2c-2.5,1.9-3.7,3.9-3.7,6.1c0,1.2,0.5,2.2,1.4,3
			c0.9,0.7,2.2,1.1,4,1.1c1.6,0,2.9-0.4,3.8-1.1c0.9-0.7,1.4-1.8,1.4-3.2C343.5,36.7,341.2,34.7,336.6,33.2 M339.1,18.3
			c2.7,0,4.8,0.5,6.2,1.5c1.4,1,2.2,2.4,2.2,4.1c0,2.8-2,5.3-6,7.4c2.4,1,4.1,1.9,5.1,2.8c1.2,1.2,1.9,2.6,1.9,4.2
			c0,2.3-1,4.1-3,5.7c-2,1.5-4.8,2.3-8.4,2.3c-3.1,0-5.4-0.5-6.8-1.5c-1.4-1-2.2-2.5-2.2-4.3c0-2.9,2.1-5.7,6.2-8.3
			c-3.6-1.9-5.4-4.1-5.4-6.7c0-2.1,0.9-3.9,2.8-5.2C333.6,18.9,336.1,18.3,339.1,18.3"/>
	</g>
</g>
<g>
	<path class="st2" d="M120.8,60.3c0.4,0.1,0.6,0.4,0.6,0.8c0,0.4-0.1,0.7-0.4,0.9c-1.1-0.5-2-0.8-2.9-0.8c-0.6,0-1.1,0.1-1.4,0.4
		c-0.3,0.3-0.4,0.6-0.4,1.1c0,0.5,0.2,0.9,0.5,1.2c0.3,0.3,0.9,0.6,1.8,0.9c1,0.3,1.8,0.7,2.4,1.1c0.5,0.4,0.8,1.1,0.8,2.1
		c0,1.1-0.3,1.9-1,2.4s-1.7,0.8-3.2,0.8c-1,0-1.7-0.1-2.2-0.2s-0.8-0.4-0.8-0.8c0-0.4,0.1-0.7,0.4-1c1,0.6,2,0.9,3.1,0.9
		c0.7,0,1.3-0.1,1.6-0.4c0.3-0.3,0.5-0.6,0.5-1.2c0-0.6-0.2-1.1-0.7-1.4c-0.4-0.3-1.2-0.6-2.1-1c-1-0.3-1.6-0.7-2-1.2
		s-0.6-1.1-0.6-1.8c0-0.9,0.3-1.7,1-2.2s1.6-0.8,2.8-0.8C119.7,60.1,120.4,60.2,120.8,60.3z"/>
	<path class="st2" d="M129.4,61.1c-0.1-0.2-0.1-0.3-0.1-0.5c0-0.1,0-0.2,0.1-0.2c0.1-0.1,0.1-0.1,0.3-0.1h2.9
		c0.1,0.2,0.1,0.3,0.1,0.5c0,0.1,0,0.2-0.1,0.3s-0.1,0.1-0.3,0.1h-0.5c0,0.7,0,2.5,0,5.3c0,1.9-0.3,3.2-1,3.8c-0.7,0.7-1.7,1-3.1,1
		c-1.2,0-2-0.2-2.5-0.7c-0.5-0.5-0.7-1.4-0.7-2.8c0-3.7,0-5.9-0.1-6.6h-0.7c-0.1-0.2-0.1-0.3-0.1-0.5c0-0.1,0-0.2,0.1-0.2
		c0.1-0.1,0.1-0.1,0.3-0.1h2.9c0.1,0.2,0.1,0.3,0.1,0.5c0,0.1,0,0.2-0.1,0.3c-0.1,0.1-0.1,0.1-0.3,0.1H126c0,0.9-0.1,2.6-0.1,5.3
		c0,1.5,0.2,2.5,0.5,3c0.4,0.5,0.9,0.7,1.6,0.7c0.8,0,1.4-0.2,1.7-0.7c0.3-0.5,0.5-1.3,0.5-2.6c0-2.9,0-4.8,0-5.7H129.4z"/>
	<path class="st2" d="M137.7,60.3c0.1,0.2,0.1,0.3,0.1,0.5c0,0.1,0,0.2-0.1,0.3c0,0.1-0.1,0.1-0.3,0.1h-0.7c0,0.7-0.1,1.9-0.1,3.6
		c0,3,0,4.8,0.1,5.6h0.9c0.1,0.2,0.1,0.3,0.1,0.5c0,0.1,0,0.2-0.1,0.3c0,0.1-0.1,0.1-0.3,0.1h-3.4c-0.1-0.2-0.1-0.3-0.1-0.5
		c0-0.1,0-0.2,0.1-0.2c0.1-0.1,0.1-0.1,0.3-0.1h0.7c0-0.7,0.1-2.6,0.1-5.6c0-1.6,0-2.8-0.1-3.5h-0.9c-0.1-0.2-0.1-0.3-0.1-0.5
		c0-0.1,0-0.2,0.1-0.2c0.1-0.1,0.1-0.1,0.3-0.1H137.7z"/>
	<path class="st2" d="M142.4,70.3c0-0.7,0.1-2.6,0.1-5.6c0-1.6,0-2.7-0.1-3.3c-1.8,0.1-2.8,0.1-3,0.1c-0.2,0-0.4,0-0.5-0.1
		s-0.1-0.2-0.1-0.4c0-0.3,0.1-0.6,0.2-1c0.9,0.2,2.1,0.4,3.7,0.4h4.7c0.2,0,0.4,0,0.5,0.1c0.1,0.1,0.1,0.2,0.1,0.4
		c0,0.4-0.1,0.7-0.3,1.1c-0.8-0.4-1.9-0.6-3.3-0.6h-0.3c0,0.6-0.1,1.7-0.1,3.4c0,3,0,4.8,0.1,5.6h1.1c0.1,0.2,0.1,0.3,0.1,0.5
		c0,0.1,0,0.2-0.1,0.3s-0.1,0.1-0.3,0.1h-3.7c-0.1-0.2-0.1-0.3-0.1-0.5c0-0.1,0-0.2,0.1-0.2c0.1-0.1,0.1-0.1,0.3-0.1H142.4z"/>
	<path class="st2" d="M155.8,60.3c0.3,0,0.5,0,0.6,0.1c0.1,0.1,0.2,0.3,0.2,0.5c0,0.3-0.1,0.7-0.3,1c-0.9-0.4-2.3-0.6-3.9-0.6h-0.7
		c0,0.6-0.1,1.8,0,3.6h3.9c0.1,0.2,0.1,0.4,0.1,0.6c0,0.1,0,0.2-0.1,0.3c-0.1,0.1-0.1,0.1-0.3,0.1h-3.7c0,2.3,0,3.7,0.1,4.2h1.1
		c1.6,0,2.9-0.2,3.8-0.6c0.2,0.3,0.2,0.6,0.2,0.9c0,0.2-0.1,0.4-0.2,0.5s-0.4,0.2-0.9,0.2l-6.5,0c-0.1-0.2-0.1-0.3-0.1-0.5
		c0-0.1,0-0.2,0.1-0.2c0.1-0.1,0.1-0.1,0.3-0.1h0.6c0-0.7,0.1-2.6,0.1-5.7c0-1.6,0-2.8-0.1-3.5h-0.8c-0.1-0.2-0.1-0.3-0.1-0.5
		c0-0.1,0-0.2,0.1-0.2c0.1-0.1,0.1-0.1,0.3-0.1H155.8z"/>
	<path class="st2" d="M164.3,60.3c0.4,0.1,0.6,0.4,0.6,0.8c0,0.4-0.1,0.7-0.4,0.9c-1.1-0.5-2-0.8-2.9-0.8c-0.6,0-1.1,0.1-1.4,0.4
		c-0.3,0.3-0.4,0.6-0.4,1.1c0,0.5,0.2,0.9,0.5,1.2c0.3,0.3,0.9,0.6,1.8,0.9c1,0.3,1.8,0.7,2.4,1.1c0.5,0.4,0.8,1.1,0.8,2.1
		c0,1.1-0.3,1.9-1,2.4s-1.7,0.8-3.2,0.8c-1,0-1.7-0.1-2.2-0.2s-0.8-0.4-0.8-0.8c0-0.4,0.1-0.7,0.4-1c1,0.6,2,0.9,3.1,0.9
		c0.7,0,1.3-0.1,1.6-0.4c0.3-0.3,0.5-0.6,0.5-1.2c0-0.6-0.2-1.1-0.7-1.4c-0.4-0.3-1.2-0.6-2.1-1c-1-0.3-1.6-0.7-2-1.2
		s-0.6-1.1-0.6-1.8c0-0.9,0.3-1.7,1-2.2s1.6-0.8,2.8-0.8C163.2,60.1,163.9,60.2,164.3,60.3z"/>
	<path class="st2" d="M177,60.6c0.5,0.4,0.7,0.9,0.7,1.5c0,0.5-0.2,1-0.5,1.5c-0.3,0.5-0.9,1.1-1.7,1.8l2.4,2.5
		c0.3-0.6,0.5-1.3,0.6-2.2c0.4,0,0.7,0,0.9,0.1s0.3,0.2,0.3,0.5c0,0.5-0.2,1.1-0.6,1.9c-0.1,0.2-0.2,0.3-0.3,0.5
		c0.6,0.6,1,1,1.1,1.1c0.2,0.2,0.4,0.3,0.6,0.4c0.2,0.1,0.4,0.1,0.6,0.1c0.1,0.3,0.1,0.6,0,0.7c-0.1,0.1-0.4,0.2-0.9,0.2
		c-0.6,0-1,0-1.2-0.2s-0.3-0.3-0.5-0.5c-0.1-0.1-0.3-0.3-0.7-0.8c-0.2,0.2-0.5,0.4-0.7,0.6c-0.9,0.6-2,0.9-3.2,0.9
		c-0.9,0-1.6-0.2-2-0.6c-0.4-0.4-0.7-0.9-0.7-1.6c0-0.9,0.4-1.7,1.2-2.4c0.5-0.5,0.9-0.8,1.3-1.1c-0.5-0.5-0.8-0.9-1.1-1.2
		c-0.4-0.5-0.7-1.1-0.7-1.7c0-0.8,0.3-1.4,0.9-1.9c0.6-0.5,1.3-0.7,2.2-0.7C175.9,60.1,176.5,60.3,177,60.6z M174.4,66.3
		c-0.4,0.3-0.6,0.6-0.9,0.8c-0.4,0.4-0.6,0.9-0.6,1.5c0,0.5,0.1,0.8,0.4,1.1c0.3,0.3,0.7,0.4,1.3,0.4c0.8,0,1.5-0.2,2.1-0.7
		c0.1-0.1,0.3-0.2,0.4-0.4L174.4,66.3z M174.7,64.6c0.2-0.2,0.5-0.5,0.7-0.7c0.5-0.5,0.7-0.9,0.7-1.4c0-0.4-0.1-0.7-0.4-1
		c-0.3-0.2-0.6-0.4-1-0.4c-0.4,0-0.7,0.1-1,0.4c-0.2,0.2-0.4,0.6-0.4,1c0,0.4,0.1,0.8,0.4,1.2C174,63.9,174.3,64.2,174.7,64.6z"/>
	<path class="st2" d="M192.6,60.3c0.4,0.1,0.6,0.4,0.6,0.8c0,0.4-0.1,0.7-0.4,0.9c-1.1-0.5-2-0.8-2.9-0.8c-0.6,0-1.1,0.1-1.4,0.4
		c-0.3,0.3-0.4,0.6-0.4,1.1c0,0.5,0.2,0.9,0.5,1.2c0.3,0.3,0.9,0.6,1.8,0.9c1,0.3,1.8,0.7,2.4,1.1c0.5,0.4,0.8,1.1,0.8,2.1
		c0,1.1-0.3,1.9-1,2.4c-0.7,0.5-1.7,0.8-3.2,0.8c-1,0-1.7-0.1-2.2-0.2s-0.8-0.4-0.8-0.8c0-0.4,0.1-0.7,0.4-1c1,0.6,2,0.9,3.1,0.9
		c0.7,0,1.3-0.1,1.6-0.4c0.3-0.3,0.5-0.6,0.5-1.2c0-0.6-0.2-1.1-0.7-1.4c-0.4-0.3-1.2-0.6-2.1-1c-1-0.3-1.6-0.7-2-1.2
		c-0.4-0.5-0.6-1.1-0.6-1.8c0-0.9,0.3-1.7,1-2.2c0.7-0.6,1.6-0.8,2.8-0.8C191.4,60.1,192.1,60.2,192.6,60.3z"/>
	<path class="st2" d="M195.5,61.1c-0.1-0.2-0.1-0.3-0.1-0.5c0-0.1,0-0.2,0.1-0.2c0.1-0.1,0.1-0.1,0.3-0.1h3c1.9,0,3.1,0.2,3.8,0.7
		c0.7,0.5,1,1.3,1,2.4c0,1.1-0.4,2-1.2,2.7s-2.1,1-3.9,1h-0.4c0,1.6,0,2.7,0.1,3.3h1.2c0.1,0.2,0.1,0.3,0.1,0.5c0,0.1,0,0.2-0.1,0.3
		c-0.1,0.1-0.1,0.1-0.3,0.1h-3.6c-0.1-0.2-0.1-0.3-0.1-0.5c0-0.1,0-0.2,0.1-0.2c0.1-0.1,0.1-0.1,0.3-0.1h0.7c0-0.7,0.1-2.6,0.1-5.6
		c0-1.6,0-2.8-0.1-3.5H195.5z M198.7,66c1.1,0,1.9-0.2,2.3-0.5c0.4-0.3,0.7-0.9,0.7-1.7c0-0.8-0.2-1.3-0.6-1.8
		c-0.4-0.4-1.1-0.6-2-0.6c-0.3,0-0.6,0-0.9,0.1c0,0.5-0.1,1.5-0.1,3.2V66H198.7z"/>
	<path class="st2" d="M209.3,60.2c0.1,0,0.6,1.5,1.5,4.4c0.9,2.9,1.6,4.8,1.9,5.6h0.7c0.1,0.2,0.1,0.3,0.1,0.5c0,0.1,0,0.2-0.1,0.3
		c-0.1,0.1-0.1,0.1-0.3,0.1H210c-0.1-0.2-0.1-0.3-0.1-0.5c0-0.1,0-0.2,0.1-0.2c0.1-0.1,0.1-0.1,0.3-0.1h0.4
		c-0.1-0.5-0.3-1.4-0.7-2.7h-3.4c-0.4,1.3-0.6,2.2-0.6,2.7h0.7c0.1,0.2,0.1,0.3,0.1,0.5c0,0.1,0,0.2-0.1,0.3c0,0.1-0.1,0.1-0.3,0.1
		h-2.8c-0.1-0.2-0.1-0.3-0.1-0.5c0-0.1,0-0.2,0.1-0.2c0.1-0.1,0.1-0.1,0.3-0.1h0.4c0.3-1,0.9-2.7,1.6-5.2s1.2-4,1.4-4.3
		s0.5-0.6,1-0.6C208.9,60.1,209.3,60.2,209.3,60.2z M209.7,66.5c-0.9-3.1-1.4-4.6-1.5-4.6s-0.5,1.5-1.4,4.6H209.7z"/>
	<path class="st2" d="M222.8,66.3c0.1,0.2,0.1,0.4,0.1,0.7c0,0.2,0,0.4-0.1,0.4s-0.2,0.1-0.4,0.1h-3.7c-0.1-0.2-0.1-0.4-0.1-0.7
		c0-0.2,0-0.4,0.1-0.4c0.1-0.1,0.2-0.1,0.3-0.1H222.8z"/>
	<path class="st2" d="M233.7,60.2c0.1,0,0.6,1.5,1.5,4.4c0.9,2.9,1.6,4.8,1.9,5.6h0.7c0.1,0.2,0.1,0.3,0.1,0.5c0,0.1,0,0.2-0.1,0.3
		c-0.1,0.1-0.1,0.1-0.3,0.1h-3.1c-0.1-0.2-0.1-0.3-0.1-0.5c0-0.1,0-0.2,0.1-0.2c0.1-0.1,0.1-0.1,0.3-0.1h0.4
		c-0.1-0.5-0.3-1.4-0.7-2.7H231c-0.4,1.3-0.6,2.2-0.6,2.7h0.7c0.1,0.2,0.1,0.3,0.1,0.5c0,0.1,0,0.2-0.1,0.3c0,0.1-0.1,0.1-0.3,0.1
		H228c-0.1-0.2-0.1-0.3-0.1-0.5c0-0.1,0-0.2,0.1-0.2c0.1-0.1,0.1-0.1,0.3-0.1h0.4c0.3-1,0.9-2.7,1.6-5.2s1.2-4,1.4-4.3
		s0.5-0.6,1-0.6C233.3,60.1,233.7,60.2,233.7,60.2z M234.1,66.5c-0.9-3.1-1.4-4.6-1.5-4.6s-0.5,1.5-1.4,4.6H234.1z"/>
	<path class="st2" d="M242.3,60.3c2,0,3.4,0.4,4.2,1.1c0.8,0.8,1.2,2,1.2,3.8c0,2-0.4,3.4-1.2,4.4c-0.8,1-2.1,1.5-3.9,1.5l-3.6,0
		c-0.1-0.2-0.1-0.3-0.1-0.5c0-0.1,0-0.2,0.1-0.2c0.1-0.1,0.1-0.1,0.3-0.1h0.6c0-0.7,0.1-2.6,0.1-5.7c0-1.6,0-2.8-0.1-3.5H239
		c-0.1-0.2-0.1-0.3-0.1-0.5c0-0.1,0-0.2,0.1-0.2c0.1-0.1,0.1-0.1,0.3-0.1H242.3z M241.6,61.5c0,0.8-0.1,2.8-0.1,5.9
		c0,1.3,0.1,2.1,0.2,2.3c0.1,0.2,0.6,0.3,1.4,0.3c0.9,0,1.6-0.3,2-0.9c0.4-0.6,0.7-1.7,0.7-3.3c0-1.6-0.3-2.8-0.8-3.4
		c-0.5-0.6-1.3-1-2.4-1C242.2,61.4,241.9,61.4,241.6,61.5z"/>
	<path class="st2" d="M255.3,61.1c-0.1-0.2-0.1-0.3-0.1-0.5c0-0.1,0-0.2,0.1-0.2c0.1-0.1,0.1-0.1,0.3-0.1h2.9
		c0.1,0.2,0.1,0.3,0.1,0.5c0,0.1,0,0.2-0.1,0.3c-0.1,0.1-0.1,0.1-0.3,0.1h-0.5c0,0.7,0,2.5,0,5.3c0,1.9-0.3,3.2-1,3.8
		c-0.7,0.7-1.7,1-3.1,1c-1.2,0-2-0.2-2.5-0.7c-0.5-0.5-0.7-1.4-0.7-2.8c0-3.7,0-5.9-0.1-6.6h-0.7c-0.1-0.2-0.1-0.3-0.1-0.5
		c0-0.1,0-0.2,0.1-0.2c0.1-0.1,0.1-0.1,0.3-0.1h2.9c0.1,0.2,0.1,0.3,0.1,0.5c0,0.1,0,0.2-0.1,0.3s-0.1,0.1-0.3,0.1h-0.5
		c0,0.9-0.1,2.6-0.1,5.3c0,1.5,0.2,2.5,0.5,3c0.4,0.5,0.9,0.7,1.6,0.7c0.8,0,1.4-0.2,1.7-0.7c0.3-0.5,0.5-1.3,0.5-2.6
		c0-2.9,0-4.8,0-5.7H255.3z"/>
	<path class="st2" d="M263.1,70c1.5,0,2.7-0.2,3.7-0.6c0.2,0.3,0.2,0.6,0.2,0.9c0,0.2-0.1,0.4-0.2,0.5s-0.4,0.2-0.9,0.2l-6,0
		c-0.1-0.2-0.1-0.3-0.1-0.5c0-0.1,0-0.2,0.1-0.2c0.1-0.1,0.1-0.1,0.3-0.1h0.6c0-0.7,0.1-2.6,0.1-5.7c0-1.6,0-2.8-0.1-3.5h-0.8
		c-0.1-0.2-0.1-0.3-0.1-0.5c0-0.1,0-0.2,0.1-0.2c0.1-0.1,0.1-0.1,0.3-0.1h3.3c0.1,0.2,0.1,0.3,0.1,0.5c0,0.1,0,0.2-0.1,0.3
		c0,0.1-0.1,0.1-0.3,0.1h-0.7c0,0.7-0.1,1.9-0.1,3.6c0,3,0,4.8,0.1,5.3H263.1z"/>
	<path class="st2" d="M271,70.3c0-0.7,0.1-2.6,0.1-5.6c0-1.6,0-2.7-0.1-3.3c-1.8,0.1-2.8,0.1-3,0.1c-0.2,0-0.4,0-0.5-0.1
		c-0.1-0.1-0.1-0.2-0.1-0.4c0-0.3,0.1-0.6,0.2-1c0.9,0.2,2.1,0.4,3.7,0.4h4.7c0.2,0,0.4,0,0.5,0.1c0.1,0.1,0.1,0.2,0.1,0.4
		c0,0.4-0.1,0.7-0.3,1.1c-0.8-0.4-1.9-0.6-3.3-0.6h-0.3c0,0.6-0.1,1.7-0.1,3.4c0,3,0,4.8,0.1,5.6h1.1c0.1,0.2,0.1,0.3,0.1,0.5
		c0,0.1,0,0.2-0.1,0.3c0,0.1-0.1,0.1-0.3,0.1h-3.7c-0.1-0.2-0.1-0.3-0.1-0.5c0-0.1,0-0.2,0.1-0.2c0.1-0.1,0.1-0.1,0.3-0.1H271z"/>
	<path class="st2" d="M283.8,60.3c0.4,0.1,0.6,0.4,0.6,0.8c0,0.4-0.1,0.7-0.4,0.9c-1.1-0.5-2-0.8-2.9-0.8c-0.6,0-1.1,0.1-1.4,0.4
		c-0.3,0.3-0.4,0.6-0.4,1.1c0,0.5,0.2,0.9,0.5,1.2c0.3,0.3,0.9,0.6,1.8,0.9c1,0.3,1.8,0.7,2.4,1.1c0.5,0.4,0.8,1.1,0.8,2.1
		c0,1.1-0.3,1.9-1,2.4c-0.7,0.5-1.7,0.8-3.2,0.8c-1,0-1.7-0.1-2.2-0.2s-0.8-0.4-0.8-0.8c0-0.4,0.1-0.7,0.4-1c1,0.6,2,0.9,3.1,0.9
		c0.7,0,1.3-0.1,1.6-0.4c0.3-0.3,0.5-0.6,0.5-1.2c0-0.6-0.2-1.1-0.7-1.4c-0.4-0.3-1.2-0.6-2.1-1c-1-0.3-1.6-0.7-2-1.2
		c-0.4-0.5-0.6-1.1-0.6-1.8c0-0.9,0.3-1.7,1-2.2c0.7-0.6,1.6-0.8,2.8-0.8C282.6,60.1,283.4,60.2,283.8,60.3z"/>
	<path class="st2" d="M292,61.6c0.8-1,2-1.5,3.5-1.5c1.4,0,2.4,0.4,3.1,1.1c0.7,0.7,1.1,2,1.1,3.9c0,2.1-0.4,3.6-1.2,4.6
		c-0.8,1-2,1.5-3.5,1.5c-1.4,0-2.4-0.4-3.1-1.1c-0.7-0.7-1.1-2-1.1-4C290.8,64.1,291.2,62.6,292,61.6z M293.3,69.1
		c0.5,0.7,1.1,1,2,1c0.8,0,1.5-0.3,1.9-1s0.6-1.7,0.6-3.2c0-1.8-0.2-3-0.7-3.6s-1.1-1-2-1c-0.8,0-1.5,0.3-1.9,1s-0.6,1.7-0.6,3.2
		C292.6,67.2,292.8,68.4,293.3,69.1z"/>
	<path class="st2" d="M304.3,60.3c0.8,1.5,1.6,2.9,2.3,4.2s1.5,2.8,2.3,4.5v-4.4c0-1.6,0-2.8-0.1-3.5h-0.8c-0.1-0.2-0.1-0.3-0.1-0.5
		c0-0.1,0-0.2,0.1-0.2c0.1-0.1,0.1-0.1,0.3-0.1h2.8c0.1,0.2,0.1,0.3,0.1,0.5c0,0.1,0,0.2-0.1,0.3c0,0.1-0.1,0.1-0.3,0.1h-0.6
		c0,0.7-0.1,1.9-0.1,3.6v5.7c0,0.3,0,0.5-0.1,0.6c-0.1,0.1-0.3,0.1-0.6,0.1c-0.6,0-1,0-1.1-0.1c-0.1,0-0.7-1-1.8-2.9
		c-1.1-1.9-2.1-3.7-2.8-5.4c0,4.3,0,6.8,0.1,7.5h0.7c0.1,0.2,0.1,0.3,0.1,0.5c0,0.1,0,0.2-0.1,0.3c-0.1,0.1-0.1,0.1-0.3,0.1h-2.8
		c-0.1-0.2-0.1-0.3-0.1-0.5c0-0.1,0-0.2,0.1-0.2c0.1-0.1,0.1-0.1,0.3-0.1h0.6c0-0.7,0.1-2.6,0.1-5.6c0-1.6,0-2.8-0.1-3.5h-0.7
		c-0.1-0.2-0.1-0.3-0.1-0.5c0-0.1,0-0.2,0.1-0.2c0.1-0.1,0.1-0.1,0.3-0.1H304.3z"/>
	<path class="st2" d="M316.2,70c1.5,0,2.7-0.2,3.7-0.6c0.2,0.3,0.2,0.6,0.2,0.9c0,0.2-0.1,0.4-0.2,0.5s-0.4,0.2-0.9,0.2l-6,0
		c-0.1-0.2-0.1-0.3-0.1-0.5c0-0.1,0-0.2,0.1-0.2c0.1-0.1,0.1-0.1,0.3-0.1h0.6c0-0.7,0.1-2.6,0.1-5.7c0-1.6,0-2.8-0.1-3.5H313
		c-0.1-0.2-0.1-0.3-0.1-0.5c0-0.1,0-0.2,0.1-0.2c0.1-0.1,0.1-0.1,0.3-0.1h3.3c0.1,0.2,0.1,0.3,0.1,0.5c0,0.1,0,0.2-0.1,0.3
		c0,0.1-0.1,0.1-0.3,0.1h-0.7c0,0.7-0.1,1.9-0.1,3.6c0,3,0,4.8,0.1,5.3H316.2z"/>
	<path class="st2" d="M328.3,61.1c-0.5,1-1.5,3.2-3,6.5c0,1.1,0,2,0.1,2.7h1.1c0.1,0.2,0.1,0.3,0.1,0.5c0,0.1,0,0.2-0.1,0.3
		c-0.1,0.1-0.1,0.1-0.3,0.1h-3.7c-0.1-0.2-0.1-0.3-0.1-0.5c0-0.1,0-0.2,0.1-0.2c0.1-0.1,0.1-0.1,0.3-0.1h0.8c0-0.7,0.1-1.6,0.1-2.6
		c-1.7-3.5-2.7-5.7-3.2-6.6h-0.6c-0.1-0.2-0.1-0.3-0.1-0.5c0-0.1,0-0.2,0.1-0.2c0.1-0.1,0.1-0.1,0.3-0.1h3c0.1,0.2,0.1,0.3,0.1,0.5
		c0,0.1,0,0.2-0.1,0.3s-0.1,0.1-0.3,0.1h-0.4c0.2,0.7,0.6,1.8,1.2,3.2c0.6,1.4,0.9,2.2,1,2.2c0.1,0,0.3-0.7,0.9-2.1
		c0.5-1.4,0.9-2.5,1.1-3.3h-0.7c-0.1-0.2-0.1-0.3-0.1-0.5c0-0.1,0-0.2,0.1-0.2c0.1-0.1,0.1-0.1,0.3-0.1h2.7c0.1,0.2,0.1,0.3,0.1,0.5
		c0,0.1,0,0.2-0.1,0.3c0,0.1-0.1,0.1-0.3,0.1H328.3z"/>
</g>
</svg>
